2026/05/31 16:51:01 Starting AuraShare Host (Bob) on port 50006...
2026/05/31 16:51:01 Capture config: TestMode=true, Headless=false, Debug=true, Display=:0, Size=1920x1080, FPS=60, Codec=libx264, GOP=60, Preset=ultrafast, Tune=zerolatency
2026/05/31 16:51:01 Listening for peers. Please connect using your connect client...
2026/05/31 16:51:04 Peer connected from: 127.0.0.1:41795
2026/05/31 16:51:04 Establishing outbound media stream...
2026/05/31 16:51:04 Opened unidirectional QUIC stream. Spawning media capture processes...
2026/05/31 16:51:04 Selected capture engine: X11 (x11grab)
2026/05/31 16:51:05 [HW Accel] No hardware acceleration codec verified physically. Falling back to optimized CPU encoding.
2026/05/31 16:51:05 [Debug] Selected encoder: libx264, extra args: [-preset ultrafast -tune zerolatency]
2026/05/31 16:51:05 Using synthetic test video source (lavfi testsrc)...
2026/05/31 16:51:05 [Pipeline] FFmpeg started (PID: 7432)
2026/05/31 16:51:05 Streaming H.264 desktop stream to peer...
ffmpeg version 6.1.1-3ubuntu5 Copyright (c) 2000-2023 the FFmpeg developers
  built with gcc 13 (Ubuntu 13.2.0-23ubuntu3)
  configuration: --prefix=/usr --extra-version=3ubuntu5 --toolchain=hardened --libdir=/usr/lib/x86_64-linux-gnu --incdir=/usr/include/x86_64-linux-gnu --arch=amd64 --enable-gpl --disable-stripping --disable-omx --enable-gnutls --enable-libaom --enable-libass --enable-libbs2b --enable-libcaca --enable-libcdio --enable-libcodec2 --enable-libdav1d --enable-libflite --enable-libfontconfig --enable-libfreetype --enable-libfribidi --enable-libglslang --enable-libgme --enable-libgsm --enable-libharfbuzz --enable-libmp3lame --enable-libmysofa --enable-libopenjpeg --enable-libopenmpt --enable-libopus --enable-librubberband --enable-libshine --enable-libsnappy --enable-libsoxr --enable-libspeex --enable-libtheora --enable-libtwolame --enable-libvidstab --enable-libvorbis --enable-libvpx --enable-libwebp --enable-libx265 --enable-libxml2 --enable-libxvid --enable-libzimg --enable-openal --enable-opencl --enable-opengl --disable-sndio --enable-libvpl --disable-libmfx --enable-libdc1394 --enable-libdrm --enable-libiec61883 --enable-chromaprint --enable-frei0r --enable-ladspa --enable-libbluray --enable-libjack --enable-libpulse --enable-librabbitmq --enable-librist --enable-libsrt --enable-libssh --enable-libsvtav1 --enable-libx264 --enable-libzmq --enable-libzvbi --enable-lv2 --enable-sdl2 --enable-libplacebo --enable-librav1e --enable-pocketsphinx --enable-librsvg --enable-libjxl --enable-shared
  libavutil      58. 29.100 / 58. 29.100
  libavcodec     60. 31.102 / 60. 31.102
  libavformat    60. 16.100 / 60. 16.100
  libavdevice    60.  3.100 / 60.  3.100
  libavfilter     9. 12.100 /  9. 12.100
  libswscale      7.  5.100 /  7.  5.100
  libswresample   4. 12.100 /  4. 12.100
  libpostproc    57.  3.100 / 57.  3.100
Input #0, lavfi, from 'testsrc=size=1920x1080:rate=60':
  Duration: N/A, start: 0.000000, bitrate: N/A
  Stream #0:0: Video: wrapped_avframe, rgb24, 1920x1080 [SAR 1:1 DAR 16:9], 60 fps, 60 tbr, 60 tbn
Stream mapping:
  Stream #0:0 -> #0:0 (wrapped_avframe (native) -> h264 (libx264))
Press [q] to stop, [?] for help
[libx264 @ 0x55e094e890c0] using SAR=1/1
[libx264 @ 0x55e094e890c0] using cpu capabilities: MMX2 SSE2Fast SSSE3 SSE4.2 AVX FMA3 BMI2 AVX2
[libx264 @ 0x55e094e890c0] profile High 4:4:4 Predictive, level 4.2, 4:4:4, 8-bit
Output #0, h264, to 'pipe:1':
  Metadata:
    encoder         : Lavf60.16.100
  Stream #0:0: Video: h264, yuv444p(tv, progressive), 1920x1080 [SAR 1:1 DAR 16:9], q=2-31, 60 fps, 60 tbn
    Metadata:
      encoder         : Lavc60.31.102 libx264
    Side data:
      cpb: bitrate max/min/avg: 0/0/0 buffer size: 0 vbv_delay: N/A
frame=    0 fps=0.0 q=20.0 size=       0kB time=00:00:00.00 bitrate=N/A speed=N/A    frame=   68 fps=0.0 q=16.0 size=     126kB time=00:00:01.13 bitrate= 911.9kbits/s speed=2.25x    frame=  148 fps=147 q=16.0 size=     226kB time=00:00:02.46 bitrate= 751.9kbits/s speed=2.45x    [Sender] Rate: 1.22 Mbps | Total Transferred: 0.31 MB
frame=  230 fps=152 q=16.0 size=     327kB time=00:00:03.83 bitrate= 698.0kbits/s speed=2.54x    frame=  313 fps=155 q=16.0 size=     469kB time=00:00:05.21 bitrate= 736.2kbits/s speed=2.59x    frame=  395 fps=157 q=16.0 size=     570kB time=00:00:06.58 bitrate= 709.1kbits/s speed=2.62x    frame=  478 fps=158 q=16.0 size=     669kB time=00:00:07.96 bitrate= 688.3kbits/s speed=2.64x    [Sender] Rate: 1.74 Mbps | Total Transferred: 0.74 MB
frame=  560 fps=159 q=16.0 size=     812kB time=00:00:09.33 bitrate= 713.0kbits/s speed=2.65x    frame=  633 fps=157 q=16.0 size=     905kB time=00:00:10.55 bitrate= 702.8kbits/s speed=2.62x    frame=  717 fps=158 q=16.0 size=    1009kB time=00:00:11.95 bitrate= 691.5kbits/s speed=2.64x    frame=  799 fps=159 q=16.0 size=    1149kB time=00:00:13.31 bitrate= 706.7kbits/s speed=2.65x    [Sender] Rate: 1.87 Mbps | Total Transferred: 1.21 MB
frame=  883 fps=160 q=16.0 size=    1252kB time=00:00:14.71 bitrate= 697.0kbits/s speed=2.66x    frame=  966 fps=160 q=17.0 size=    1392kB time=00:00:16.10 bitrate= 708.4kbits/s speed=2.67x    frame= 1049 fps=160 q=16.0 size=    1495kB time=00:00:17.48 bitrate= 700.6kbits/s speed=2.67x    frame= 1131 fps=161 q=16.0 size=    1596kB time=00:00:18.85 bitrate= 693.8kbits/s speed=2.68x    [Sender] Rate: 1.73 Mbps | Total Transferred: 1.64 MB
frame= 1216 fps=161 q=16.0 size=    1740kB time=00:00:20.26 bitrate= 703.5kbits/s speed=2.69x    frame= 1301 fps=162 q=16.0 size=    1843kB time=00:00:21.68 bitrate= 696.2kbits/s speed=2.69x    frame= 1383 fps=162 q=18.0 size=    1984kB time=00:00:23.05 bitrate= 705.3kbits/s speed=2.69x    frame= 1466 fps=162 q=16.0 size=    2087kB time=00:00:24.43 bitrate= 699.6kbits/s speed= 2.7x    [Sender] Rate: 1.91 Mbps | Total Transferred: 2.12 MB
frame= 1550 fps=162 q=16.0 size=    2187kB time=00:00:25.83 bitrate= 693.6kbits/s speed= 2.7x    frame= 1631 fps=162 q=16.0 size=    2329kB time=00:00:27.18 bitrate= 702.0kbits/s speed= 2.7x    frame= 1709 fps=162 q=16.0 size=    2426kB time=00:00:28.48 bitrate= 697.8kbits/s speed= 2.7x    frame= 1791 fps=162 q=16.0 size=    2529kB time=00:00:29.85 bitrate= 694.0kbits/s speed= 2.7x    [Sender] Rate: 1.73 Mbps | Total Transferred: 2.55 MB
frame= 1874 fps=162 q=16.0 size=    2670kB time=00:00:31.23 bitrate= 700.4kbits/s speed= 2.7x    frame= 1955 fps=162 q=16.0 size=    2772kB time=00:00:32.58 bitrate= 696.8kbits/s speed= 2.7x    frame= 2038 fps=162 q=16.0 size=    2873kB time=00:00:33.96 bitrate= 692.8kbits/s speed= 2.7x    frame= 2121 fps=162 q=16.0 size=    3016kB time=00:00:35.35 bitrate= 698.8kbits/s speed= 2.7x    [Sender] Rate: 1.89 Mbps | Total Transferred: 3.02 MB
frame= 2200 fps=162 q=16.0 size=    3114kB time=00:00:36.65 bitrate= 696.1kbits/s speed= 2.7x    frame= 2280 fps=162 q=13.0 size=    3212kB time=00:00:38.00 bitrate= 692.5kbits/s speed= 2.7x    frame= 2362 fps=162 q=16.0 size=    3356kB time=00:00:39.36 bitrate= 698.4kbits/s speed= 2.7x    frame= 2446 fps=162 q=16.0 size=    3457kB time=00:00:40.76 bitrate= 694.6kbits/s speed= 2.7x    [Sender] Rate: 1.71 Mbps | Total Transferred: 3.45 MB
frame= 2520 fps=162 q=14.0 size=    3554kB time=00:00:42.00 bitrate= 693.1kbits/s speed=2.69x    frame= 2596 fps=161 q=16.0 size=    3690kB time=00:00:43.26 bitrate= 698.6kbits/s speed=2.69x    frame= 2673 fps=161 q=16.0 size=    3788kB time=00:00:44.55 bitrate= 696.5kbits/s speed=2.68x    frame= 2750 fps=161 q=16.0 size=    3885kB time=00:00:45.83 bitrate= 694.3kbits/s speed=2.68x    [Sender] Rate: 1.65 Mbps | Total Transferred: 3.86 MB
frame= 2821 fps=160 q=20.0 size=    3976kB time=00:00:47.01 bitrate= 692.8kbits/s speed=2.67x    frame= 2898 fps=160 q=16.0 size=    4116kB time=00:00:48.30 bitrate= 698.1kbits/s speed=2.67x    frame= 2981 fps=160 q=16.0 size=    4216kB time=00:00:49.68 bitrate= 695.2kbits/s speed=2.67x    frame= 3061 fps=160 q=20.0 size=    4317kB time=00:00:51.01 bitrate= 693.3kbits/s speed=2.67x    [Sender] Rate: 1.70 Mbps | Total Transferred: 4.29 MB
frame= 3139 fps=160 q=16.0 size=    4455kB time=00:00:52.31 bitrate= 697.5kbits/s speed=2.67x    frame= 3213 fps=160 q=16.0 size=    4551kB time=00:00:53.55 bitrate= 696.2kbits/s speed=2.66x    frame= 3291 fps=159 q=16.0 size=    4649kB time=00:00:54.85 bitrate= 694.4kbits/s speed=2.66x    frame= 3369 fps=159 q=16.0 size=    4789kB time=00:00:56.15 bitrate= 698.6kbits/s speed=2.66x    [Sender] Rate: 1.67 Mbps | Total Transferred: 4.70 MB
frame= 3447 fps=159 q=16.0 size=    4886kB time=00:00:57.45 bitrate= 696.7kbits/s speed=2.65x    frame= 3525 fps=159 q=16.0 size=    4983kB time=00:00:58.75 bitrate= 694.8kbits/s speed=2.65x    frame= 3598 fps=159 q=16.0 size=    5079kB time=00:00:59.96 bitrate= 693.9kbits/s speed=2.65x    frame= 3676 fps=159 q=16.0 size=    5217kB time=00:01:01.26 bitrate= 697.6kbits/s speed=2.65x    [Sender] Rate: 1.66 Mbps | Total Transferred: 5.12 MB
frame= 3752 fps=159 q=16.0 size=    5315kB time=00:01:02.53 bitrate= 696.2kbits/s speed=2.64x    frame= 3830 fps=159 q=16.0 size=    5412kB time=00:01:03.83 bitrate= 694.6kbits/s speed=2.64x    frame= 3901 fps=158 q=20.0 size=    5504kB time=00:01:05.01 bitrate= 693.4kbits/s speed=2.64x    frame= 3972 fps=158 q=16.0 size=    5640kB time=00:01:06.20 bitrate= 697.9kbits/s speed=2.63x    [Sender] Rate: 1.64 Mbps | Total Transferred: 5.53 MB
frame= 4048 fps=158 q=16.0 size=    5735kB time=00:01:07.46 bitrate= 696.3kbits/s speed=2.63x    frame= 4122 fps=157 q=16.0 size=    5831kB time=00:01:08.70 bitrate= 695.3kbits/s speed=2.62x    frame= 4199 fps=157 q=16.0 size=    5928kB time=00:01:09.98 bitrate= 693.9kbits/s speed=2.62x    frame= 4277 fps=157 q=16.0 size=    6067kB time=00:01:11.28 bitrate= 697.2kbits/s speed=2.62x    [Sender] Rate: 1.67 Mbps | Total Transferred: 5.95 MB
frame= 4353 fps=157 q=16.0 size=    6163kB time=00:01:12.55 bitrate= 695.9kbits/s speed=2.62x    frame= 4430 fps=157 q=16.0 size=    6259kB time=00:01:13.83 bitrate= 694.4kbits/s speed=2.62x    frame= 4511 fps=157 q=16.0 size=    6401kB time=00:01:15.18 bitrate= 697.4kbits/s speed=2.62x    frame= 4594 fps=157 q=16.0 size=    6501kB time=00:01:16.56 bitrate= 695.5kbits/s speed=2.62x    [Sender] Rate: 1.85 Mbps | Total Transferred: 6.41 MB
frame= 4676 fps=157 q=16.0 size=    6603kB time=00:01:17.93 bitrate= 694.1kbits/s speed=2.62x    frame= 4757 fps=157 q=16.0 size=    6743kB time=00:01:19.28 bitrate= 696.7kbits/s speed=2.62x    frame= 4839 fps=158 q=16.0 size=    6845kB time=00:01:20.65 bitrate= 695.3kbits/s speed=2.63x    frame= 4919 fps=158 q=16.0 size=    6944kB time=00:01:21.98 bitrate= 693.9kbits/s speed=2.63x    [Sender] Rate: 1.72 Mbps | Total Transferred: 6.84 MB
frame= 5001 fps=158 q=16.0 size=    7087kB time=00:01:23.35 bitrate= 696.5kbits/s speed=2.63x    frame= 5077 fps=158 q=16.0 size=    7183kB time=00:01:24.61 bitrate= 695.5kbits/s speed=2.63x    frame= 5162 fps=158 q=19.0 size=    7328kB time=00:01:26.03 bitrate= 697.8kbits/s speed=2.63x    frame= 5244 fps=158 q=16.0 size=    7428kB time=00:01:27.40 bitrate= 696.3kbits/s speed=2.63x    [Sender] Rate: 1.72 Mbps | Total Transferred: 7.27 MB
frame= 5322 fps=158 q=16.0 size=    7525kB time=00:01:28.70 bitrate= 695.0kbits/s speed=2.63x    frame= 5401 fps=158 q=21.0 size=    7626kB time=00:01:30.01 bitrate= 694.0kbits/s speed=2.63x    frame= 5475 fps=158 q=16.0 size=    7761kB time=00:01:31.25 bitrate= 696.8kbits/s speed=2.63x    frame= 5554 fps=158 q=16.0 size=    7861kB time=00:01:32.56 bitrate= 695.7kbits/s speed=2.63x    [Sender] Rate: 1.68 Mbps | Total Transferred: 7.69 MB
frame= 5632 fps=158 q=16.0 size=    7959kB time=00:01:33.86 bitrate= 694.6kbits/s speed=2.63x    frame= 5709 fps=157 q=16.0 size=    8098kB time=00:01:35.15 bitrate= 697.2kbits/s speed=2.62x    frame= 5786 fps=157 q=16.0 size=    8195kB time=00:01:36.43 bitrate= 696.2kbits/s speed=2.62x    frame= 5867 fps=157 q=16.0 size=    8294kB time=00:01:37.78 bitrate= 694.8kbits/s speed=2.62x    [Sender] Rate: 1.85 Mbps | Total Transferred: 8.16 MB
frame= 5950 fps=158 q=16.0 size=    8438kB time=00:01:39.16 bitrate= 697.1kbits/s speed=2.63x    frame= 6031 fps=158 q=16.0 size=    8537kB time=00:01:40.51 bitrate= 695.8kbits/s speed=2.63x    frame= 6111 fps=158 q=16.0 size=    8639kB time=00:01:41.85 bitrate= 694.8kbits/s speed=2.63x    frame= 6190 fps=158 q=16.0 size=    8778kB time=00:01:43.16 bitrate= 697.0kbits/s speed=2.63x    [Sender] Rate: 1.71 Mbps | Total Transferred: 8.58 MB
frame= 6267 fps=158 q=16.0 size=    8876kB time=00:01:44.45 bitrate= 696.1kbits/s speed=2.63x    frame= 6346 fps=158 q=16.0 size=    8974kB time=00:01:45.76 bitrate= 695.1kbits/s speed=2.63x    frame= 6425 fps=158 q=17.0 size=    9114kB time=00:01:47.08 bitrate= 697.2kbits/s speed=2.63x    frame= 6502 fps=157 q=16.0 size=    9212kB time=00:01:48.36 bitrate= 696.4kbits/s speed=2.62x    [Sender] Rate: 1.70 Mbps | Total Transferred: 9.01 MB
frame= 6580 fps=157 q=16.0 size=    9309kB time=00:01:49.66 bitrate= 695.3kbits/s speed=2.62x    